<?xml version="1.0" encoding="UTF-8"?>
<!DOCTYPE svg PUBLIC "-//W3C//DTD SVG 1.1//EN" "http://www.w3.org/Graphics/SVG/1.1/DTD/svg11.dtd">
<!-- Creator: CorelDRAW 2020 (64 Bit Versão de avaliação) -->
<svg xmlns="http://www.w3.org/2000/svg" xml:space="preserve" width="44.3652mm" height="44.3652mm" version="1.1" style="shape-rendering:geometricPrecision; text-rendering:geometricPrecision; image-rendering:optimizeQuality; fill-rule:evenodd; clip-rule:evenodd"
viewBox="0 0 4436.52 4436.52"
 xmlns:xlink="http://www.w3.org/1999/xlink"
 xmlns:xodm="http://www.corel.com/coreldraw/odm/2003">
 <defs>
  <style type="text/css">
   <![CDATA[
    .fil0 {fill:#E7DFDD}
   ]]>
  </style>
 </defs>
 <g id="Camada_x0020_1">
  <metadata id="CorelCorpID_0Corel-Layer"/>
  <path class="fil0" d="M1050.49 1318.58c0,63.12 9.8,129.66 24.47,188.72 5.57,22.43 11.77,36.55 16.35,56.22 -57.43,85.77 -90.63,97.98 -145.86,235.15 -94.31,234.28 -73.03,540.63 -0.96,773.49 72.33,233.68 242.27,412.39 471.43,503.77 92.2,36.76 290.99,93.28 396.59,93.28 -31.85,47.57 -47.39,39.8 -88.8,137.99 -49.02,116.25 -7.07,130.62 -71.19,155.6 -126.65,49.34 -250.27,58.94 -372.23,-1.76 -49.15,-24.46 -93.74,-60.41 -126.19,-100.61 -74.04,-91.73 -100.26,-174.53 -207.86,-245.73 -144.26,-95.45 -387.89,-73.25 -188.71,70.78 62.86,45.44 91,65.83 138.73,133.43 27.49,38.93 57.81,90.46 76.54,136.64 10.3,25.4 19.2,53.36 31.06,77.8 5.49,11.31 13.41,23.87 19.64,34.79 58.71,102.86 150.76,173.69 274.8,210.54 30.11,8.95 52.39,12.82 86.42,17.9 80.8,12.06 168.05,5.87 249.01,-7.85 18.12,-3.07 27.58,-7.18 47.24,-7.18l0 371.94c0,45.93 -47.12,81.65 -90.71,81.65 -64.56,0 -117.34,-28.44 -184.03,-56.38 -52.46,-21.97 -94.59,-44.38 -144.07,-69.12 -94.68,-47.32 -176.13,-105.09 -262.46,-163.9 -21.78,-14.84 -38.86,-28.64 -59.11,-45.21l-115.82 -97.38c-92.11,-85.2 -179.19,-180.73 -253.84,-281.38 -31.2,-42.07 -58.86,-82.63 -87.47,-125.72 -57.68,-86.87 -106.9,-181.34 -149.71,-276.66 -22.27,-49.58 -42.49,-96.18 -61.68,-151.5 -45.73,-131.9 -85.68,-280.82 -105.82,-424.88 -4.52,-32.27 -7.08,-62.65 -11.97,-96.88 -17.65,-123.44 -8.07,-324.4 3.06,-442.22 20.25,-214.25 81.88,-417.41 162.22,-613.41 29.71,-72.46 66.47,-146.45 105.85,-211.66l74.42 -120.62c51.92,-77.87 106.92,-148.02 166.45,-219.1 38.84,-46.38 83.79,-88.74 126.8,-131.74 63.96,-63.97 134.55,-124.61 209.34,-176.22 76.39,-52.71 151.79,-108.22 235.5,-150.05 31.07,-15.52 56.69,-28.24 87.75,-43.79 595.53,-297.99 1335.93,-252.27 1898.35,86.84 92.64,55.86 179.38,118.3 262.9,186.15l36.71 31.33c160.49,141.81 297.52,306.04 409.75,488.35 17.97,29.18 30.88,55.34 47.47,84.06 64.85,112.17 114.54,232.52 155.78,356.78 21.59,65.05 39.85,133.08 55.31,203.24 116.89,530.62 31.46,1028.37 -206.69,1485.92 -55.48,106.59 -177.98,291.35 -261.95,377.6 -168.33,172.88 -195.23,205.4 -393.9,349.99 -62.63,45.59 -130.57,86.94 -199.91,122.13 -48.38,24.56 -93.44,47.03 -144.78,68.41 -74.82,31.16 -247.52,120.11 -276.93,-17.26 -16.22,-75.76 21,-610.33 -21.6,-781.24 -12.01,-48.18 -24.59,-76.86 -43.57,-115.19 -9.58,-19.34 -18.45,-33.37 -31.08,-50.57 -12.15,-16.56 -27.53,-30.52 -36.99,-44.65 67.89,-5.65 145.31,-22.41 205.25,-35.15 175.24,-37.26 360.53,-119.14 483.12,-251.69l53.62 -64.31c188.88,-252.16 247.29,-714.96 126.34,-1016.13 -23.3,-58.02 -47.04,-105.62 -82.3,-153.56l-64.83 -84.85c34.96,-150.07 41.03,-109.88 36.4,-304.02 -0.9,-37.76 -32.17,-212.29 -57.42,-246.48 -8.89,-12.03 -12.97,-11.95 -33.41,-11.95 -102.48,0 -225.5,43.88 -300.94,80.07 -60.81,29.19 -115.77,64.74 -172.71,99.45 -66.63,40.62 -37.14,44.42 -117.16,25.74l-182.15 -35.57c-173.07,-25.43 -372.57,-23.65 -545.69,-0.57 -38.99,5.2 -84.06,13.62 -123.43,21.71 -20.04,4.12 -37.6,8.92 -58.95,13.62 -46.72,10.29 -45.17,25.42 -87.39,-4 -10.17,-7.08 -16.54,-10.93 -27.79,-17.57 -150.04,-88.51 -288.38,-182.88 -479.36,-182.88 -41.85,0 -37.54,19.79 -48.19,51.6 -28.61,85.44 -47.06,174.63 -47.06,265.91zm1068.86 -1301.79l154.31 0c157.24,5.56 313.53,28.15 464.2,68.01 260.68,68.95 513.92,190.82 727.65,351.88l113.38 90.73c63.32,49.48 116.09,108.8 171.57,164.09 131.5,131.07 282.52,349.36 364.76,515.19l43.82 92.26c53.77,106.61 126.64,333.24 150.09,453.17 14.92,76.32 30.86,152.64 38.51,233.65 30.99,327.9 7.49,643.19 -96.55,954.94 -56.17,168.33 -137.19,358.67 -236.9,506.98 -9.71,14.44 -15.67,25.89 -24.42,39.08 -45.12,67.96 -69.21,95.85 -114.74,157.41 -11.3,15.26 -19.95,24.07 -30.46,37.58 -94.47,121.54 -223.78,234.93 -343.31,332.53 -209.27,170.87 -497.74,309.36 -763.4,379.63 -238.42,63.07 -372.92,68.01 -616.91,68.01 -363.85,0 -736.6,-129.5 -1039.57,-312.12 -170.09,-102.53 -380.78,-278.6 -510.35,-433.1l-226.22 -313.55c-96.58,-164.43 -147.18,-277.72 -209.98,-465.85 -21.92,-65.65 -42.41,-137.27 -56.92,-210.71 -15.1,-76.42 -30.86,-152.8 -38.5,-233.65 -7.74,-81.83 -14.02,-164.65 -14.02,-253.59 0,-323.4 79.64,-701.51 225.25,-990.36l46.95 -89.12c77.63,-149.92 220.03,-350.46 339.01,-468.37 25.99,-25.76 36.77,-45.29 67.25,-68.83l106.88 -97.24c187.07,-150.98 301.37,-232.38 539,-336.41 240.15,-105.14 504.1,-162.86 769.62,-172.24z"/>
 </g>
</svg>
