<?xml version="1.0" encoding="UTF-8"?>
<!DOCTYPE svg PUBLIC "-//W3C//DTD SVG 1.1//EN" "http://www.w3.org/Graphics/SVG/1.1/DTD/svg11.dtd">
<!-- Creator: CorelDRAW 2020 (64 Bit Versão de avaliação) -->
<svg xmlns="http://www.w3.org/2000/svg" xml:space="preserve" width="44.3652mm" height="44.3652mm" version="1.1" style="shape-rendering:geometricPrecision; text-rendering:geometricPrecision; image-rendering:optimizeQuality; fill-rule:evenodd; clip-rule:evenodd"
viewBox="0 0 4436.52 4436.52"
 xmlns:xlink="http://www.w3.org/1999/xlink"
 xmlns:xodm="http://www.corel.com/coreldraw/odm/2003">
 <defs>
  <style type="text/css">
   <![CDATA[
    .fil0 {fill:#E7DFDD}
   ]]>
  </style>
 </defs>
 <g id="Camada_x0020_1">
  <metadata id="CorelCorpID_0Corel-Layer"/>
  <g id="_2309520991744">
   <path class="fil0" d="M1077.93 474.7c276.36,-69.69 1407.57,-25.06 1776.09,-25.09 430.44,-0.06 1016.84,-18.73 1161.74,642.75 69.16,315.78 20.33,1378.84 20.4,1770.62 0.03,448.95 -6.06,998.76 -614.61,1146.53 -297.3,72.16 -1399.92,25.57 -1781.17,25.64 -325.35,0.03 -544.95,31.01 -797.2,-126.14 -166.9,-103.96 -306.55,-251.92 -364.54,-516.61 -69.16,-315.78 -20.33,-1378.84 -20.4,-1770.62 -0.03,-282.81 -11.66,-553.49 112.72,-765.67 104.58,-178.36 250.78,-316.78 506.97,-381.41zm-991.85 2884.76c58.93,548.7 517.23,1021.24 1111.74,1053.43l2178.48 -6.46c568.09,-66.58 1009.25,-546.97 1038.37,-1130.6l-5.24 -2140.2c-51.73,-553.49 -518.37,-1031.57 -1112.85,-1063.76l-2178.48 6.46c-567.79,66.55 -1009.25,546.48 -1038.37,1130.6l6.35 2150.53z"/>
   <path class="fil0" d="M2079 1527.27c443.32,-108.15 812.35,202.99 887.02,560.89 89.07,426.76 -203.74,789.51 -539.81,869.59 -949.66,226.25 -1298.27,-1198.46 -347.21,-1430.48zm-39.38 -379.04c-1513.22,315.84 -972.44,2491.69 435.92,2188.46 1453.01,-312.81 972.2,-2482.34 -435.92,-2188.46z"/>
   <path class="fil0" d="M3331.21 816.6c-366.72,135.03 -177.28,621.96 178.17,525.5 316.65,-85.9 188.04,-660.31 -178.17,-525.5z"/>
  </g>
 </g>
</svg>
